{
  "accessors": [
    {
      "bufferView": 2,
      "componentType": 5126,
      "count": 935,
      "max": [
        0.8574543595314026,
        0.9987999796867371,
        0.6460176706314087
      ],
      "min": [
        -0.857579231262207,
        -0.9999628663063049,
        -0.30124086141586304
      ],
      "type": "VEC3"
    },
    {
      "bufferView": 2,
      "byteOffset": 11220,
      "componentType": 5126,
      "count": 935,
      "max": [
        0.9971791505813599,
        0.9957845211029053,
        0.999848484992981
      ],
      "min": [
        -0.9949265122413635,
        -0.9999465942382813,
        -0.997035801410675
      ],
      "type": "VEC3"
    },
    {
      "bufferView": 3,
      "componentType": 5126,
      "count": 935,
      "max": [
        0.999327540397644,
        0.9997150897979736,
        0.9293321371078491,
        1.0
      ],
      "min": [
        -0.9961045980453491,
        -0.9995453357696533,
        -0.9943106174468994,
        1.0
      ],
      "type": "VEC4"
    },
    {
      "bufferView": 1,
      "componentType": 5126,
      "count": 935,
      "max": [
        0.9347589612007141,
        0.9984515905380249
      ],
      "min": [
        0.0020222438033670187,
        0.001658148132264614
      ],
      "type": "VEC2"
    },
    {
      "bufferView": 0,
      "componentType": 5125,
      "count": 4590,
      "type": "SCALAR"
    }
  ],
  "asset": {
    "extras": {
      "author": "Ricardo Sanchez (https://sketchfab.com/380660711785)",
      "license": "CC-BY-4.0 (http://creativecommons.org/licenses/by/4.0/)",
      "source": "https://sketchfab.com/3d-models/rock-low-poly-3c8b08e1351a483382bfd8c6d88b9d64",
      "title": "Rock low-poly"
    },
    "generator": "Sketchfab-12.68.0",
    "version": "2.0"
  },
  "bufferViews": [
    {
      "buffer": 0,
      "byteLength": 18360,
      "name": "floatBufferViews",
      "target": 34963
    },
    {
      "buffer": 0,
      "byteLength": 7480,
      "byteOffset": 18360,
      "byteStride": 8,
      "name": "floatBufferViews",
      "target": 34962
    },
    {
      "buffer": 0,
      "byteLength": 22440,
      "byteOffset": 25840,
      "byteStride": 12,
      "name": "floatBufferViews",
      "target": 34962
    },
    {
      "buffer": 0,
      "byteLength": 14960,
      "byteOffset": 48280,
      "byteStride": 16,
      "name": "floatBufferViews",
      "target": 34962
    }
  ],
  "buffers": [
    {
      "byteLength": 63240,
      "uri": "scene.bin"
    }
  ],
  "images": [
    {
      "uri": "textures/Rock_kk_Material_baseColor.png"
    },
    {
      "uri": "textures/Rock_kk_Material_metallicRoughness.png"
    },
    {
      "uri": "textures/Rock_kk_Material_normal.png"
    }
  ],
  "materials": [
    {
      "doubleSided": true,
      "name": "Rock_kk_Material",
      "normalTexture": {
        "index": 2
      },
      "occlusionTexture": {
        "index": 1
      },
      "pbrMetallicRoughness": {
        "baseColorTexture": {
          "index": 0
        },
        "metallicFactor": 0.0,
        "metallicRoughnessTexture": {
          "index": 1
        }
      }
    }
  ],
  "meshes": [
    {
      "name": "Rock_kk_Rock_kk_Material_0",
      "primitives": [
        {
          "attributes": {
            "NORMAL": 1,
            "POSITION": 0,
            "TANGENT": 2,
            "TEXCOORD_0": 3
          },
          "indices": 4,
          "material": 0,
          "mode": 4
        }
      ]
    }
  ],
  "nodes": [
    {
      "children": [
        1
      ],
      "matrix": [
        1.0,
        0.0,
        0.0,
        0.0,
        0.0,
        2.220446049250313e-16,
        -1.0,
        0.0,
        0.0,
        1.0,
        2.220446049250313e-16,
        0.0,
        0.0,
        0.0,
        0.0,
        1.0
      ],
      "name": "Sketchfab_model"
    },
    {
      "children": [
        2
      ],
      "matrix": [
        0.009999999776482582,
        0.0,
        0.0,
        0.0,
        0.0,
        0.0,
        0.009999999776482582,
        0.0,
        0.0,
        -0.009999999776482582,
        0.0,
        0.0,
        0.0,
        0.0,
        0.0,
        1.0
      ],
      "name": "Rock_kk.fbx"
    },
    {
      "children": [
        3
      ],
      "name": "RootNode"
    },
    {
      "children": [
        4
      ],
      "matrix": [
        100.0,
        0.0,
        0.0,
        0.0,
        0.0,
        -1.629206793918314e-05,
        -99.99999999999868,
        0.0,
        0.0,
        99.99999999999868,
        -1.629206793918314e-05,
        0.0,
        0.0,
        0.0,
        0.0,
        1.0
      ],
      "name": "Rock_kk"
    },
    {
      "mesh": 0,
      "name": "Rock_kk_Rock_kk_Material_0"
    }
  ],
  "samplers": [
    {
      "magFilter": 9729,
      "minFilter": 9987,
      "wrapS": 10497,
      "wrapT": 10497
    }
  ],
  "scene": 0,
  "scenes": [
    {
      "name": "Sketchfab_Scene",
      "nodes": [
        0
      ]
    }
  ],
  "textures": [
    {
      "sampler": 0,
      "source": 0
    },
    {
      "sampler": 0,
      "source": 1
    },
    {
      "sampler": 0,
      "source": 2
    }
  ]
}
